General
Complete name                    : Ran.1985.mkv
Format                           : Matroska
File size                        : 2.15 GiB
Duration                         : 2h 42mn
Overall bit rate                 : 1 897 Kbps
Writing application              : HandBrake 0.9.4

Video

Format                           : AVC
Duration                         : 2h 42mn
Bit rate                         : 1 572 Kbps
Width                            : 1 280 pixels
Height                           : 704 pixels
Display aspect ratio             : 16:9
Stream size                      : 1.75 GiB (81%)
Writing library                  : x264 core 79


Audio

Format                           : AC-3
Codec ID                         : A_AC3
Duration                         : 2h 42mn
Bit rate                         : 320 Kbps
Channel(s)                       : 6 channels
Channel positions                : Front: L C R, Side: L R, LFE
Sampling rate                    : 48.0 KHz
Stream size                      : 371 MiB (17%)
Language                         : Japanese

Text #1
Language                         : Danish

Text #2
Language                         : Dutch

Text #3
Language                         : English

Text #4
Language                         : Finnish

Text #5
Language                         : French

Text #6
Language                         : German

Text #7
Language                         : Italian

Text #8
Language                         : Norwegian

Text #9
Language                         : Spanish

Text #10
Language                         : Swedish

